<svg xmlns="http://www.w3.org/2000/svg" width="20" height="20" fill="none" viewBox="0 0 24 24"><path stroke="#1f2937" stroke-width="2" d="M12 15a3 3 0 100-6 3 3 0 000 6z"/><path stroke="#1f2937" stroke-width="2" d="M19.4 15a7.97 7.97 0 00.2-2 7.97 7.97 0 00-.2-2l2.1-1.6-2-3.5-2.6 1a8.24 8.24 0 00-3.4-2L13 1h-2l-.4 3.3a8.24 8.24 0 00-3.4 2l-2.6-1-2 3.5 2.1 1.6a7.97 7.97 0 00-.2 2c0 .7.1 1.3.2 2L2.6 16.6l2 3.5 2.6-1a8.24 8.24 0 003.4 2l.4 2.9h2l.4-2.9a8.24 8.24 0 003.4-2l2.6 1 2-3.5-2.1-1.6z"/></svg>